# xmcd CD database file generated by OrangeCD 6.4
#
# Track frame offsets:
#	150
#	12590
#	25275
#	37157
#	47727
#	56000
#	70227
#	87105
#	97222
#	110230
#	121385
#	133952
#	150160
#	163877
#	177687
#	186797
#	198827
#	209587
#	221682
#	238722
#	250347
#	265102
#	278147
#	287050
#	300255
#	313552
#	329340
#	339440
#
# Disc length: 4715 seconds
#
# Revision: 1
# Processed by: cddbd v1.5.2PL0 Copyright (c) Steve Scherf et al.
# Submitted via: OrangeCD 6.4
#
DISCID=af12691c
DTITLE=Jeanie West - Country Bluegrass
DYEAR=2000
DGENRE=Bluegrass
TTITLE0=Six More Miles
TTITLE1=Greenback Dollar
TTITLE2=The Girl in the Blue Velvet Band
TTITLE3=Have a Feast Here Tonight
TTITLE4=Poor Ellen Smith
TTITLE5=The Storms Are on the Ocean
TTITLE6=Tramp on the Street
TTITLE7=Single Girl, Married Girl
TTITLE8=You're a Flower Blooming in the Wildwood
TTITLE9=Little Margaret
TTITLE10=The Gypsy's Warning
TTITLE11=The Girl I Left in Sunny Tennessee
TTITLE12=Green Grow the Violets
TTITLE13=Those Dark Eyes
TTITLE14=The Homestead on the Farm
TTITLE15=I'd Like to Be Your Shadow in the Moonlight
TTITLE16=Give Me the Roses Now
TTITLE17=Take This Hammer
TTITLE18=They're at Rest Together
TTITLE19=I'm Coming Back But I Don't Know When
TTITLE20=The Banks of the Ohio
TTITLE21=Unclouded Day
TTITLE22=Blue Moon of Kentucky
TTITLE23=Let Us Be Lovers Again
TTITLE24=In a Little Village Churchyard
TTITLE25=Sittin' on Top of the World
TTITLE26=Where the Old Red River Flows
TTITLE27=Bury Me Beneath the Willow
EXTD=
EXTT0=
EXTT1=
EXTT2=
EXTT3=
EXTT4=
EXTT5=
EXTT6=
EXTT7=
EXTT8=
EXTT9=
EXTT10=
EXTT11=
EXTT12=
EXTT13=
EXTT14=
EXTT15=
EXTT16=
EXTT17=
EXTT18=
EXTT19=
EXTT20=
EXTT21=
EXTT22=
EXTT23=
EXTT24=
EXTT25=
EXTT26=
EXTT27=
PLAYORDER=
